<svg width="120" height="40" viewBox="0 0 120 40" fill="none" xmlns="http://www.w3.org/2000/svg">
<rect width="40" height="40" rx="6" fill="#9D2A39"/>
<path d="M27.9718 23.6508V16.3492C27.9718 13.9823 26.053 12.0635 23.6861 12.0635C21.3192 12.0635 19.4004 13.9823 19.4004 16.3492V23.6508C19.4004 26.0177 21.3192 27.9365 23.6861 27.9365V30C20.2343 30 17.4258 27.2455 17.3389 23.8146L17.3369 23.6508V16.3492C17.3369 12.8426 20.1795 10 23.6861 10C27.1927 10 30.0353 12.8426 30.0353 16.3492V23.6508C30.0353 27.1574 27.1927 30 23.6861 30V27.9365C26.053 27.9365 27.9718 26.0177 27.9718 23.6508Z" fill="white"/>
<path d="M23.7091 17.3016C27.7024 17.3016 27.8993 19.5187 28.532 21.5231C29.0527 22.4443 30.0583 22.5171 30.0583 23.6508C30.0583 27.1026 27.3037 29.9111 23.8729 29.998L23.7091 30L16.2906 30C12.784 30 9.94141 27.1574 9.94141 23.6508C9.94141 20.1442 12.784 17.3016 16.2906 17.3016L16.2906 19.3651C13.9237 19.3651 12.0049 21.2839 12.0049 23.6508C12.0049 26.0177 13.9237 27.9365 16.2906 27.9365L23.7091 27.9365C26.076 27.9365 27.9948 26.0177 27.9948 23.6508C27.9948 21.2839 26.076 19.3651 23.7091 19.3651L20.4176 19.3651L20.4176 17.3016L23.7091 17.3016Z" fill="white"/>
<path d="M53.2571 26H51.1238V16.7238H53.2571V19.2571C53.6 17.7905 54.5143 16.5333 56.2667 16.5333C57.9619 16.5333 58.8762 17.5238 58.9714 19.2762C59.2952 17.8095 60.2095 16.5333 61.981 16.5333C63.7524 16.5333 64.6857 17.619 64.6857 19.5429V26H62.5524V20.1905C62.5524 18.9143 62.019 18.2667 60.7619 18.2667C59.5048 18.2667 58.9714 19.2762 58.9714 20.8V26H56.8381V20.1905C56.8381 18.9143 56.3048 18.2667 55.0476 18.2667C53.7905 18.2667 53.2571 19.2762 53.2571 20.8V26ZM70.3847 26.1905C67.6228 26.1905 65.8132 24.2667 65.8132 21.3714C65.8132 18.4571 67.6228 16.5333 70.2323 16.5333C73.0132 16.5333 74.5561 18.381 74.5561 20.9524C74.5561 21.2952 74.518 21.6952 74.4799 21.8857H67.8513C67.9656 23.5429 68.9371 24.4381 70.4037 24.4381C72.0228 24.4381 72.7466 23.6 73.0894 22.819L74.4037 24.1905C73.699 25.2571 72.4418 26.1905 70.3847 26.1905ZM70.2323 18.2476C68.918 18.2476 68.0418 19.0095 67.8704 20.5143H72.6323C72.4799 19.0476 71.6418 18.2476 70.2323 18.2476Z" fill="#1C1917"/>
<path d="M80.8 26.2286C78.5333 26.2286 76.7238 25.1048 76.7238 22.781C76.7238 21.3524 77.619 20.1143 79.6571 19.2762C78.8762 18.381 78.1905 17.3905 78.1905 16.2095C78.1905 14.4381 79.4286 13.0286 81.9238 13.0286C84.2095 13.0286 85.5238 14.419 85.5238 16.1333C85.5238 17.9048 84.2095 19.0476 82.5143 19.5238L85.2762 22.4952C85.9048 21.6571 86.0571 20.5905 85.6952 19.0095H87.7333C88.0762 21.0286 87.4095 22.5905 86.4 23.6381C86.8571 24.0381 87.3333 24.3048 87.8286 24.3048C88.819 24.3048 89.3143 23.2381 89.3524 22.781L90.2095 24.9524C89.7905 25.581 88.9143 26.1905 87.7905 26.1905C86.6667 26.1905 85.8286 25.7143 84.9905 24.9333C83.8857 25.7714 82.381 26.2286 80.8 26.2286ZM80.2857 16.1905C80.2857 16.9333 80.7238 17.5619 81.619 18.5524C83.1429 17.9048 83.581 17.1238 83.581 16.2857C83.581 15.4286 82.9905 14.7238 81.9238 14.7238C80.8571 14.7238 80.2857 15.3714 80.2857 16.1905ZM78.9143 22.4952C78.9143 23.7143 79.9238 24.3238 81.2571 24.3238C82.1905 24.3238 83.0667 24.0762 83.7714 23.6571L80.6476 20.3429L80.6095 20.3048C79.5429 20.781 78.9143 21.6 78.9143 22.4952ZM93.4653 29.181C92.132 29.181 91.0463 28.4952 90.532 27.7714L91.5415 26.0571C92.0368 26.7619 92.6082 27.2952 93.4653 27.2952C94.1891 27.2952 94.6463 26.9714 94.9891 25.9429L95.1606 25.4286H93.8463L90.7796 16.7238H93.1225L94.7987 21.981L95.4653 24.4571L96.132 21.981L97.7891 16.7238H100.151L96.7225 26.6476C96.0558 28.5143 94.9701 29.181 93.4653 29.181ZM104.745 26.1905C102.078 26.1905 100.25 24.2476 100.25 21.3714C100.25 18.4762 102.078 16.5333 104.745 16.5333C107.45 16.5333 109.278 18.4762 109.278 21.3714C109.278 24.2476 107.45 26.1905 104.745 26.1905ZM104.764 24.419C106.155 24.419 107.107 23.5048 107.107 21.3714C107.107 19.219 106.155 18.3048 104.764 18.3048C103.393 18.3048 102.44 19.219 102.44 21.3714C102.44 23.5048 103.393 24.419 104.764 24.419ZM113.375 26.1905C111.584 26.1905 110.48 25.1048 110.48 23.181V16.7238H112.613V22.5333C112.613 23.6762 112.994 24.4571 114.422 24.4571C115.984 24.4571 116.518 23.4476 116.518 21.9238V16.7238H118.67V26H116.518V23.4667C116.175 24.9333 115.222 26.1905 113.375 26.1905Z" fill="#1C1917"/>
</svg>
