<svg width="48" height="48" viewBox="0 0 48 48" fill="none" xmlns="http://www.w3.org/2000/svg">
<rect width="48" height="48" rx="7.2" fill="#9D2A39"/>
<path d="M33.5666 28.3809V19.619C33.5666 16.7787 31.2641 14.4762 28.4237 14.4762C25.5834 14.4762 23.2809 16.7787 23.2809 19.619V28.3809C23.2809 31.2213 25.5834 33.5238 28.4237 33.5238V36C24.2816 36 20.9114 32.6946 20.8071 28.5776L20.8047 28.3809V19.619C20.8047 15.4112 24.2158 12 28.4237 12C32.6316 12 36.0428 15.4112 36.0428 19.619V28.3809C36.0428 32.5888 32.6316 36 28.4237 36V33.5238C31.2641 33.5238 33.5666 31.2213 33.5666 28.3809Z" fill="white"/>
<path d="M28.4509 20.7619C33.2429 20.7619 33.4792 23.4224 34.2384 25.8277C34.8632 26.9332 36.0699 27.0205 36.0699 28.381C36.0699 32.5231 32.7645 35.8933 28.6475 35.9976L28.4509 36L19.5487 36C15.3409 36 11.9297 32.5888 11.9297 28.381C11.9297 24.1731 15.3408 20.7619 19.5487 20.7619L19.5487 23.2381C16.7084 23.2381 14.4059 25.5406 14.4059 28.381C14.4059 31.2213 16.7084 33.5238 19.5487 33.5238L28.4509 33.5238C31.2912 33.5238 33.5937 31.2213 33.5937 28.381C33.5937 25.5406 31.2912 23.2381 28.4509 23.2381L24.5011 23.2381L24.5011 20.7619L28.4509 20.7619Z" fill="white"/>
</svg>
